HIERARCHY
ROOT hip
{
  OFFSET 0 0 0
  CHANNELS 6 Xposition Yposition Zposition Zrotation Yrotation Xrotation
  JOINT abdomen
  {
    OFFSET 0 20.6881 -0.73152
    CHANNELS 3 Zrotation Xrotation Yrotation
    JOINT chest
    {
      OFFSET 0 11.7043 -0.48768
      CHANNELS 3 Zrotation Xrotation Yrotation
      JOINT neck
      {
        OFFSET 0 22.1894 -2.19456
        CHANNELS 3 Zrotation Xrotation Yrotation
        JOINT head
        {
          OFFSET -0.24384 7.07133 1.2192
          CHANNELS 3 Zrotation Xrotation Yrotation
          JOINT leftEye
          {
            OFFSET 4.14528 8.04674 8.04672
            CHANNELS 3 Zrotation Xrotation Yrotation
            End Site
            {
              OFFSET 1 0 0
            }
          }
          JOINT rightEye
          {
            OFFSET -3.6576 8.04674 8.04672
            CHANNELS 3 Zrotation Xrotation Yrotation
            End Site
            {
              OFFSET 1 0 0
            }
          }
        }
      }
      JOINT rCollar
      {
        OFFSET -2.68224 19.2634 -4.8768
        CHANNELS 3 Zrotation Xrotation Yrotation
        JOINT rShldr
        {
          OFFSET -8.77824 -1.95073 1.46304
          CHANNELS 3 Zrotation Xrotation Yrotation
          JOINT rForeArm
          {
            OFFSET -28.1742 -1.7115 0.48768
            CHANNELS 3 Zrotation Xrotation Yrotation
            JOINT rHand
            {
              OFFSET -22.5879 0.773209 7.07136
              CHANNELS 3 Zrotation Xrotation Yrotation
              JOINT rThumb1
              {
                OFFSET -1.2192 -0.487915 3.41376
                CHANNELS 3 Zrotation Xrotation Yrotation
                JOINT rThumb2
                {
                  OFFSET -3.37035 -0.52449 3.41376
                  CHANNELS 3 Zrotation Xrotation Yrotation
                  End Site
                  {
                    OFFSET -1.78271 -1.18214 1.43049
                  }
                }
              }
              JOINT rIndex1
              {
                OFFSET -7.75947 0.938293 5.60832
                CHANNELS 3 Zrotation Xrotation Yrotation
                JOINT rIndex2
                {
                  OFFSET -2.54057 -0.884171 1.56538
                  CHANNELS 3 Zrotation Xrotation Yrotation
                  End Site
                  {
                    OFFSET -1.62519 -0.234802 1.16502
                  }
                }
              }
              JOINT rMid1
              {
                OFFSET -8.24714 1.18213 3.41376
                CHANNELS 3 Zrotation Xrotation Yrotation
                JOINT rMid2
                {
                  OFFSET -3.10165 -0.590103 1.0647
                  CHANNELS 3 Zrotation Xrotation Yrotation
                  End Site
                  {
                    OFFSET -2.48547 -0.328903 0.83742
                  }
                }
              }
              JOINT rRing1
              {
                OFFSET -8.82822 0.546677 1.51678
                CHANNELS 3 Zrotation Xrotation Yrotation
                JOINT rRing2
                {
                  OFFSET -2.60934 -0.819778 -0.0198488
                  CHANNELS 3 Zrotation Xrotation Yrotation
                  End Site
                  {
                    OFFSET -2.33842 -0.294052 0.168128
                  }
                }
              }
              JOINT rPinky1
              {
                OFFSET -8.27202 -0.0477905 -0.4584
                CHANNELS 3 Zrotation Xrotation Yrotation
                JOINT rPinky2
                {
                  OFFSET -1.82734 -0.647385 -0.700984
                  CHANNELS 3 Zrotation Xrotation Yrotation
                  End Site
                  {
                    OFFSET -1.69225 -0.51767 -0.607171
                  }
                }
              }
            }
          }
        }
      }
      JOINT lCollar
      {
        OFFSET 2.68224 19.2634 -4.8768
        CHANNELS 3 Zrotation Xrotation Yrotation
        JOINT lShldr
        {
          OFFSET 8.77824 -1.95073 1.46304
          CHANNELS 3 Zrotation Xrotation Yrotation
          JOINT lForeArm
          {
            OFFSET 28.1742 -1.7115 0.48768
            CHANNELS 3 Zrotation Xrotation Yrotation
            JOINT lHand
            {
              OFFSET 22.5879 0.773209 7.07136
              CHANNELS 3 Zrotation Xrotation Yrotation
              JOINT lThumb1
              {
                OFFSET 1.2192 -0.487915 3.41376
                CHANNELS 3 Zrotation Xrotation Yrotation
                JOINT lThumb2
                {
                  OFFSET 3.37035 -0.52449 3.41376
                  CHANNELS 3 Zrotation Xrotation Yrotation
                  End Site
                  {
                    OFFSET 1.78271 -1.18214 1.43049
                  }
                }
              }
              JOINT lIndex1
              {
                OFFSET 7.75947 0.938293 5.60832
                CHANNELS 3 Zrotation Xrotation Yrotation
                JOINT lIndex2
                {
                  OFFSET 2.54057 -0.884171 1.56538
                  CHANNELS 3 Zrotation Xrotation Yrotation
                  End Site
                  {
                    OFFSET 1.62519 -0.234802 1.16502
                  }
                }
              }
              JOINT lMid1
              {
                OFFSET 8.24714 1.18213 3.41376
                CHANNELS 3 Zrotation Xrotation Yrotation
                JOINT lMid2
                {
                  OFFSET 3.10165 -0.590103 1.0647
                  CHANNELS 3 Zrotation Xrotation Yrotation
                  End Site
                  {
                    OFFSET 2.48547 -0.328903 0.83742
                  }
                }
              }
              JOINT lRing1
              {
                OFFSET 8.82822 0.546677 1.51678
                CHANNELS 3 Zrotation Xrotation Yrotation
                JOINT lRing2
                {
                  OFFSET 2.60934 -0.819778 -0.0198488
                  CHANNELS 3 Zrotation Xrotation Yrotation
                  End Site
                  {
                    OFFSET 2.33842 -0.294052 0.168128
                  }
                }
              }
              JOINT lPinky1
              {
                OFFSET 8.27202 -0.0477905 -0.4584
                CHANNELS 3 Zrotation Xrotation Yrotation
                JOINT lPinky2
                {
                  OFFSET 1.82734 -0.647385 -0.700984
                  CHANNELS 3 Zrotation Xrotation Yrotation
                  End Site
                  {
                    OFFSET 1.69225 -0.51767 -0.607171
                  }
                }
              }
            }
          }
        }
      }
    }
  }
  JOINT rButtock
  {
    OFFSET -8.77824 4.35084 1.2192
    CHANNELS 3 Zrotation Xrotation Yrotation
    JOINT rThigh
    {
      OFFSET 0 -1.70687 -2.19456
      CHANNELS 3 Zrotation Xrotation Yrotation
      JOINT rShin
      {
        OFFSET 0 -36.8199 0.73152
        CHANNELS 3 Zrotation Xrotation Yrotation
        JOINT rFoot
        {
          OFFSET 0.73152 -45.1104 -5.12064
          CHANNELS 3 Zrotation Xrotation Yrotation
          End Site
          {
            OFFSET -1.1221 -3.69964 12.103
          }
        }
      }
    }
  }
  JOINT lButtock
  {
    OFFSET 8.77824 4.35084 1.2192
    CHANNELS 3 Zrotation Xrotation Yrotation
    JOINT lThigh
    {
      OFFSET 0 -1.70687 -2.19456
      CHANNELS 3 Zrotation Xrotation Yrotation
      JOINT lShin
      {
        OFFSET 0 -36.8199 0.73152
        CHANNELS 3 Zrotation Xrotation Yrotation
        JOINT lFoot
        {
          OFFSET -0.73152 -45.1104 -5.12064
          CHANNELS 3 Zrotation Xrotation Yrotation
          End Site
          {
            OFFSET 1.1221 -3.69964 12.103
          }
        }
      }
    }
  }
}
MOTION
Frames:	4
Frame Time:	0.03333
-0.34119999408721924 84.91089630126953 0.5112000107765198 5.3283000737428665 -17.7115997672081 -31.16210013628006 -11.296300292015076 48.61879885196686 21.243300586938858 -5.611220151185989 -6.124830320477486 3.866579979658127 -6.855899915099144 15.387399941682816 -4.132530055940151 8.673319816589355 -20.35370036959648 -6.417610198259354 0.0 0.0 0.0 0.0 0.0 0.0 0.0 0.0 0.0 31.44610047340393 44.103098809719086 26.28069967031479 -25.527800917625427 -22.27760061621666 54.924302101135254 -0.05288079846650362 6.571049988269806 0.9275580011308193 -2.276578925375361e-10 1.5347723092418164e-09 -1.0487610779819079e-10 -3.977618234785041e-10 2.6551560949883424e-09 -1.816147232602816e-10 -2.276578925375361e-10 1.5347723092418164e-09 -1.0487610779819079e-10 7.7309102565050125 5.474880114197731 0.41731400415301323 -2.276578925375361e-10 1.5347723092418164e-09 -1.0487610779819079e-10 2.905540131032467 0.9651830233633518 0.102901995414868 -2.276578925375361e-10 1.5347723092418164e-09 -1.0487610779819079e-10 10.27859978377819 0.7318009994924068 0.025912300043273717 -2.276578925375361e-10 1.5347723092418164e-09 -1.0487610779819079e-10 2.221670038998127 -0.733487019315362 -0.2089200052432716 0.0 0.0 0.0 -67.41009771823883 29.71439927816391 -4.531170018017292 26.209200024604797 -23.983599543571472 -57.70470142364502 0.6946169910952449 -22.906199097633362 3.406129851937294 -7.545963853772264e-10 -2.184492586820852e-09 -2.545164079492679e-09 -1.2597922705026576e-09 -3.6425262806005776e-09 -4.4073544813727494e-09 -7.545963853772264e-10 -2.184492586820852e-09 -2.545164079492679e-09 -7.7309102565050125 5.474880114197731 -0.41731400415301323 -7.545963853772264e-10 -2.184492586820852e-09 -2.545164079492679e-09 -2.905540131032467 0.9651830233633518 -0.102901995414868 -7.545963853772264e-10 -2.184492586820852e-09 -2.545164079492679e-09 -10.27859978377819 0.7318009994924068 -0.025912300043273717 -7.545963853772264e-10 -2.184492586820852e-09 -2.545164079492679e-09 -2.221670038998127 -0.733487019315362 0.2089200052432716 0.0 0.0 0.0 -1.1178599763661623 2.876780144870281 1.3197599910199642 -0.5021109944209456 46.81500256061554 0.7701040338724852 -7.866760119795799 -10.340100154280663 -16.177799999713898 0.0 0.0 0.0 133.27200293540955 -81.54799997806549 102.71099925041199 1.12270999699831 55.075101256370544 -0.5764920031651855 3.8829800114035606 -4.8171501606702805 15.492099970579147
-0.28139999508857727 85.34230041503906 1.8852999806404114 5.495599843561649 -18.6360003054142 -30.808099508285522 -11.089699789881706 47.99720227718353 19.746999442577362 -5.64335972070694 -5.335399881005287 3.7726399675011635 -6.734409928321838 14.845899492502213 -3.8754601031541824 8.41742031276226 -19.648499339818954 -5.9569401293993 0.0 0.0 0.0 0.0 0.0 0.0 0.0 0.0 0.0 31.934699714183807 45.363702178001404 26.28789871931076 -25.71600079536438 -22.72660106420517 55.618398785591125 -0.0381807005032897 5.568400025367737 0.7850850094109774 -1.964508555829525e-09 -7.433413884427864e-09 1.64476432473748e-09 -3.3918468034244142e-09 -1.287673967453884e-08 2.8495605874923058e-09 -1.964508555829525e-09 -7.433413884427864e-09 1.64476432473748e-09 7.7309102565050125 5.474880114197731 0.41731400415301323 -1.964508555829525e-09 -7.433413884427864e-09 1.64476432473748e-09 2.905540131032467 0.9651830233633518 0.102901995414868 -1.964508555829525e-09 -7.433413884427864e-09 1.64476432473748e-09 10.27859978377819 0.7318009994924068 0.025912300043273717 -1.964508555829525e-09 -7.433413884427864e-09 1.64476432473748e-09 2.221670038998127 -0.733487019315362 -0.2089200052432716 0.0 0.0 0.0 -67.65489757061005 28.476900458335876 -3.363950103521347 25.990200340747833 -23.409598767757416 -56.72509968280792 0.6180169992148876 -21.755700409412384 3.2152001559734344 -7.085532160999719e-10 -1.156195139628835e-09 -5.028937266615685e-09 -1.1357315088389441e-09 -1.7342927094432525e-09 -8.697043085703626e-09 -7.085532160999719e-10 -1.156195139628835e-09 -5.028937266615685e-09 -7.7309102565050125 5.474880114197731 -0.41731400415301323 -7.085532160999719e-10 -1.156195139628835e-09 -5.028937266615685e-09 -2.905540131032467 0.9651830233633518 -0.102901995414868 -7.085532160999719e-10 -1.156195139628835e-09 -5.028937266615685e-09 -10.27859978377819 0.7318009994924068 -0.025912300043273717 -7.085532160999719e-10 -1.156195139628835e-09 -5.028937266615685e-09 -2.221670038998127 -0.733487019315362 0.2089200052432716 0.0 0.0 0.0 0.13937600422650576 3.858780115842819 2.1565099619328976 -0.5763200065121055 45.2921998500824 0.14611500198952854 -8.338389694690704 -9.296429827809334 -17.76639997959137 0.0 0.0 0.0 117.15299963951111 -81.37449860572815 81.06760025024414 0.31808899249881506 37.31029987335205 -0.048624101327732205 3.7465400621294975 -3.2162800803780556 18.0506993830204
0.012800008058547974 85.2708969116211 4.176100075244904 5.484099872410297 -18.341399878263474 -30.815199315547943 -9.674910306930542 47.72310197353363 16.907799392938614 -5.505590066313744 -4.865319952368736 3.358200117945671 -6.641720160841942 14.910399913787842 -3.5437600314617157 8.162729814648628 -19.834800213575363 -5.357070118188858 0.0 0.0 0.0 0.0 0.0 0.0 0.0 0.0 0.0 33.54529917240143 46.51580214500427 24.56430047750473 -26.119399666786194 -23.747398853302002 57.23510026931763 -0.02372689952608198 4.457759968936443 0.6277270149439573 -3.9968028886505635e-09 -2.4883775040507317e-08 5.113349743623985e-09 -6.893685622344492e-09 -4.308617462811526e-08 8.85563622432528e-09 -3.9968028886505635e-09 -2.4883775040507317e-08 5.113349743623985e-09 7.7309102565050125 5.474880114197731 0.41731400415301323 -3.9968028886505635e-09 -2.4883775040507317e-08 5.113349743623985e-09 2.905540131032467 0.9651830233633518 0.102901995414868 -3.9968028886505635e-09 -2.4883775040507317e-08 5.113349743623985e-09 10.27859978377819 0.7318009994924068 0.025912300043273717 -3.9968028886505635e-09 -2.4883775040507317e-08 5.113349743623985e-09 2.221670038998127 -0.733487019315362 -0.2089200052432716 0.0 0.0 0.0 -67.5010997056961 27.34350085258484 -3.410619869828224 25.545500814914703 -22.319200336933136 -54.924800992012024 0.4272039793431759 -18.457500636577606 2.685210071504116 7.750600161671173e-10 4.317826096666977e-09 -4.3792169890366495e-09 1.4145484783512075e-09 7.6892092693015e-09 -7.568985438410891e-09 7.750600161671173e-10 4.317826096666977e-09 -4.3792169890366495e-09 -7.7309102565050125 5.474880114197731 -0.41731400415301323 7.750600161671173e-10 4.317826096666977e-09 -4.3792169890366495e-09 -2.905540131032467 0.9651830233633518 -0.102901995414868 7.750600161671173e-10 4.317826096666977e-09 -4.3792169890366495e-09 -10.27859978377819 0.7318009994924068 -0.025912300043273717 7.750600161671173e-10 4.317826096666977e-09 -4.3792169890366495e-09 -2.221670038998127 -0.733487019315362 0.2089200052432716 0.0 0.0 0.0 -0.12418200261890888 5.641700103878975 1.632360052317381 -0.5997569812461734 44.735799729824066 -0.09639750234782696 -8.556299731135368 -9.735679775476456 -18.19120019674301 0.0 0.0 0.0 131.65799975395203 -80.75389981269836 95.05279898643494 0.13464400079101324 31.934200823307037 -0.11141199502162635 3.2102900370955467 -1.9603799656033516 18.463599979877472
0.08680000901222229 85.23310089111328 6.7929001450538635 5.551299937069416 -18.01450029015541 -31.914100348949432 -8.203369975090027 47.57399797439575 14.551399648189545 -5.253810100257397 -4.664000049233437 2.974889986217022 -6.576559916138649 15.061700642108917 -3.2156799361109734 8.130100071430206 -20.364500284194946 -4.710349962115288 0.0 0.0 0.0 0.0 0.0 0.0 0.0 0.0 0.0 36.021299958229065 47.37049877643585 21.4676995575428 -26.574999690055847 -25.009799301624298 59.2982017993927 -0.01627399935387075 3.639579936861992 0.5122059909626842 -4.862670266447822e-09 -3.5202560866309796e-08 7.113669653335819e-09 -8.383693739233422e-09 -6.095092430769e-08 1.2316547781665577e-08 -4.862670266447822e-09 -3.5202560866309796e-08 7.113669653335819e-09 7.7309102565050125 5.474880114197731 0.41731400415301323 -4.862670266447822e-09 -3.5202560866309796e-08 7.113669653335819e-09 2.905540131032467 0.9651830233633518 0.102901995414868 -4.862670266447822e-09 -3.5202560866309796e-08 7.113669653335819e-09 10.27859978377819 0.7318009994924068 0.025912300043273717 -4.862670266447822e-09 -3.5202560866309796e-08 7.113669653335819e-09 2.221670038998127 -0.733487019315362 -0.2089200052432716 0.0 0.0 0.0 -67.1045994758606 26.26810133457184 -4.406999833881855 24.952400028705597 -20.993999987840652 -52.78100252151489 0.2707620011642575 -14.652100503444672 2.1057900600135326 1.8596324480313342e-09 8.057554623519536e-09 -2.6832935873244423e-09 3.256275249441387e-09 1.4058514352655038e-08 -4.629896466212813e-09 1.8596324480313342e-09 8.057554623519536e-09 -2.6832935873244423e-09 -7.7309102565050125 5.474880114197731 -0.41731400415301323 1.8596324480313342e-09 8.057554623519536e-09 -2.6832935873244423e-09 -2.905540131032467 0.9651830233633518 -0.102901995414868 1.8596324480313342e-09 8.057554623519536e-09 -2.6832935873244423e-09 -10.27859978377819 0.7318009994924068 -0.025912300043273717 1.8596324480313342e-09 8.057554623519536e-09 -2.6832935873244423e-09 -2.221670038998127 -0.733487019315362 0.2089200052432716 0.0 0.0 0.0 -0.8504259679466486 7.464489787817001 0.8159869909286499 -0.586290992796421 45.02139866352081 -0.09963940246962011 -8.95864985883236 -10.740700140595436 -18.536499738693237 0.0 0.0 0.0 153.68800163269043 -77.77849853038788 119.34800148010254 0.17190400161780417 35.2989998459816 -0.3530849888920784 2.658540029078722 -1.16219999268651 17.132599353790283
